<svg width="2920" height="520" viewBox="0 0 2920 520" fill="none" xmlns="http://www.w3.org/2000/svg">
<path fill-rule="evenodd" clip-rule="evenodd" d="M1314.67 454.764H1210.91V496C1210.91 505.611 1203.11 513.413 1193.5 513.413H1111.84C1102.23 513.413 1094.43 505.611 1094.43 496V251.974C1094.43 222.717 1111.65 197.041 1137.07 185.315C1098.39 177.443 1076.14 168.707 1083.35 146.111C1090.95 122.269 1126.42 129.932 1143.61 129.831C1157.01 129.753 1169.05 139.697 1173.7 144.08L1204.1 65.2961C1213.91 39.8721 1237 21.9751 1264.07 18.8141C1394.39 3.34509 1456.56 2.76408 1587.16 18.8651C1613.05 22.0071 1635.32 38.6441 1645.68 62.5731L1680.6 143.255C1685.78 138.566 1697.19 129.757 1709.81 129.831C1727 129.932 1762.46 122.269 1770.06 146.111C1777.29 168.777 1754.89 177.497 1715.99 185.388C1741.05 197.239 1757.99 222.726 1757.99 251.722C1758.02 330.342 1758.02 496 1758.02 496C1758.02 505.611 1750.22 513.413 1740.61 513.413H1658.95C1649.34 513.413 1641.54 505.611 1641.54 496V454.764H1538.75V307.997C1538.75 242.273 1505.66 213.601 1427.15 213.601C1347.75 213.601 1314.67 242.273 1314.67 307.997V454.764ZM1475.67 454.764H1377.74V309.761C1377.74 277.561 1391.86 263.446 1427.15 263.446C1461.99 263.446 1475.67 277.561 1475.67 309.761V454.764ZM1264.11 213.601C1264.11 205.714 1257.71 199.311 1249.82 199.311H1221.24C1213.36 199.311 1206.95 205.714 1206.95 213.601V276.477C1206.95 284.364 1213.36 290.767 1221.24 290.767H1249.82C1257.71 290.767 1264.11 284.364 1264.11 276.477V213.601ZM1646.46 213.601C1646.46 207.342 1642.43 202.018 1636.82 200.086C1635.36 199.584 1633.8 199.311 1632.17 199.311H1603.59C1595.7 199.311 1589.3 205.714 1589.3 213.601V276.477C1589.3 284.364 1595.7 290.767 1603.59 290.767H1632.17C1640.06 290.767 1646.46 284.364 1646.46 276.477V213.601Z" fill="#A6C439"/>
<path d="M20 326.402V332.415C20 418.597 63.592 459.183 153.782 459.183C181.341 459.183 211.404 455.174 241.468 447.658V404.066C217.417 409.578 181.341 414.087 158.793 414.087C101.672 414.087 76.619 390.037 76.619 330.912V327.905C76.619 268.781 101.672 244.73 158.793 244.73C181.341 244.73 217.417 249.239 241.468 254.751V211.159C211.404 203.643 181.341 199.634 153.782 199.634C63.592 199.634 20 240.22 20 326.402Z" fill="white"/>
<path d="M383.768 199.634C352.202 199.634 323.641 203.643 290.07 211.159V254.751C320.635 248.237 350.698 244.73 377.755 244.73C431.369 244.73 449.407 257.256 449.407 296.84V302.852C417.339 300.848 394.29 300.347 381.263 300.347C295.582 300.347 259.005 324.899 259.005 379.013C259.005 433.128 294.079 459.183 361.722 459.183C401.305 459.183 428.362 450.164 446.4 429.62H449.407V454.673H506.026V310.368C506.026 231.201 472.456 199.634 383.768 199.634ZM315.624 378.512C315.624 350.954 335.667 339.43 384.269 339.43C399.802 339.43 425.857 340.432 449.407 341.434V353.96C449.407 395.047 426.358 415.591 371.743 415.591C332.66 415.591 315.624 404.066 315.624 378.512Z" fill="white"/>
<path d="M645.822 353.96C685.405 360.975 708.955 365.485 708.955 386.529C708.955 405.569 687.911 414.087 635.801 414.087C601.729 414.087 570.663 411.081 540.599 405.068V448.159C573.669 455.174 603.232 459.183 638.807 459.183C721.482 459.183 765.575 435.633 765.575 383.523C765.575 320.891 701.439 311.872 652.837 303.855C621.771 298.844 592.208 294.334 592.208 270.785C592.208 253.248 608.242 244.229 659.35 244.229C692.42 244.229 721.983 247.736 749.541 254.25V211.159C718.976 203.643 690.917 199.634 656.344 199.634C574.671 199.634 535.589 223.184 535.589 273.791C535.589 339.931 603.733 346.445 645.822 353.96Z" fill="white"/>
<path d="M799.647 98.9219V454.673H856.266V308.865C856.266 264.271 876.309 244.73 923.909 244.73C970.508 244.73 990.55 264.271 990.55 308.865V454.673H1047.17V306.861C1047.17 232.704 1013.6 199.634 940.945 199.634C902.364 199.634 877.311 209.155 860.275 227.694H856.266V98.9219H799.647Z" fill="white"/>
<path d="M1804.06 325.861V331.874C1804.06 417.555 1847.65 458.642 1936.84 458.642C2025.53 458.642 2068.62 417.555 2068.62 331.874V98.3811H2012V229.157H2007.99C1990.45 211.62 1969.41 199.094 1924.81 199.094C1843.64 199.094 1804.06 238.176 1804.06 325.861ZM1860.68 330.371V327.365C1860.68 268.741 1883.22 244.189 1936.84 244.189C1989.95 244.189 2012 268.741 2012 327.365V330.371C2012 388.995 1989.95 413.547 1936.84 413.547C1883.22 413.547 1860.68 388.995 1860.68 330.371Z" fill="white"/>
<path d="M2218.93 244.189C2230.45 244.189 2251 244.69 2267.53 246.193V202.601C2249.99 200.096 2231.96 199.094 2213.42 199.094C2128.24 199.094 2105.19 222.142 2105.19 288.783V454.132H2161.81V288.783C2161.81 253.208 2169.32 244.189 2218.93 244.189Z" fill="white"/>
<path d="M2289.08 203.603V454.132H2345.7V203.603H2289.08ZM2282.06 128.945C2282.06 147.485 2294.59 159.009 2317.64 159.009C2339.68 159.009 2352.21 147.485 2352.21 128.945V127.943C2352.21 108.903 2339.68 97.3789 2317.64 97.3789C2294.59 97.3789 2282.06 108.903 2282.06 127.943V128.945Z" fill="white"/>
<path d="M2367.74 203.603L2455.92 423.067C2466.45 450.124 2478.97 458.642 2506.03 458.642C2533.09 458.642 2545.11 450.124 2556.13 423.067L2643.82 203.603H2583.19L2512.04 394.506C2510.54 399.517 2508.03 400.018 2506.03 400.018C2504.02 400.018 2502.02 399.517 2500.02 394.506L2428.87 203.603H2367.74Z" fill="white"/>
<path d="M2900.37 318.847C2900.37 242.686 2860.28 199.094 2775.6 199.094C2688.92 199.094 2646.33 240.18 2646.33 325.861V331.874C2646.33 418.557 2689.92 458.642 2783.12 458.642C2811.68 458.642 2845.75 454.633 2880.32 447.117V404.528C2856.27 409.538 2813.68 414.048 2788.13 414.048C2735.02 414.048 2709.96 395.508 2703.95 351.415H2876.82C2896.36 351.415 2900.37 345.403 2900.37 318.847ZM2703.45 309.827C2707.96 263.73 2729.51 243.688 2775.6 243.688C2821.2 243.688 2842.75 267.238 2843.25 309.827H2703.45Z" fill="white"/>
</svg>
